# Blender v2.79 (sub 0) OBJ File: 'Skyscrapers.blend'
# www.blender.org
g Building_4_Plane.003
v -0.969511 0.000000 0.969511
v 0.969511 0.000000 0.969511
v -0.969511 0.000000 -0.969511
v 0.969511 0.000000 -0.969511
v -0.969511 8.998200 1.079205
v 0.969511 8.998200 1.079205
v -0.969511 11.349028 -0.969511
v 0.969511 11.349028 -0.969511
v -0.969510 9.131298 -0.207077
v -0.969510 9.612035 -0.556884
v -0.969510 9.780849 -0.969511
v -0.969511 5.345445 -0.969511
v 0.969511 9.780849 -0.969511
v 0.969511 9.612035 -0.556884
v 0.969511 9.131298 -0.207077
v 0.969511 8.411824 0.026658
v 0.969511 7.563147 0.108734
v 0.969511 6.714469 0.026658
v 0.969511 5.994995 -0.207076
v 0.969511 5.514257 -0.556884
v -0.969511 5.345445 0.969511
v 0.969511 5.345445 0.969511
v 0.969511 5.345445 -0.969511
v -0.969510 8.411824 0.026658
v -0.969510 7.563147 0.108734
v -0.969511 6.714469 0.026658
v -0.969511 5.994995 -0.207076
v -0.969511 5.514257 -0.556884
vt 0.398999 0.601001
vt 0.201001 0.601001
vt 0.201001 0.798999
vt 0.398999 0.798999
vt 0.398999 0.198999
vt 0.398999 0.001001
vt 0.001001 0.001001
vt 0.001001 0.198999
vt 0.198999 0.601001
vt 0.001001 0.601001
vt 0.001001 0.798999
vt 0.198999 0.798999
vt 0.598999 0.001001
vt 0.401001 0.001001
vt 0.401001 0.398999
vt 0.598999 0.398999
vt 0.398999 0.598999
vt 0.398999 0.401001
vt 0.001001 0.401001
vt 0.001001 0.598999
vt 0.798999 0.001001
vt 0.601001 0.001001
vt 0.601001 0.398999
vt 0.798999 0.398999
vt 0.398999 0.398999
vt 0.398999 0.201001
vt 0.001001 0.201001
vt 0.001001 0.398999
vt 0.598999 0.401001
vt 0.401001 0.401001
vt 0.401001 0.798999
vt 0.598999 0.798999
vt 0.401001 0.898999
vt 0.598999 0.898999
vt 0.598999 0.801001
vt 0.401001 0.801001
vt 0.998999 0.398999
vt 0.998999 0.201001
vt 0.901001 0.201001
vt 0.901001 0.398999
vt 0.601001 0.898999
vt 0.798999 0.898999
vt 0.798999 0.801001
vt 0.601001 0.801001
vt 0.898999 0.798999
vt 0.898999 0.601001
vt 0.801001 0.601001
vt 0.801001 0.798999
vt 0.201001 0.998999
vt 0.398999 0.998999
vt 0.398999 0.901001
vt 0.201001 0.901001
vt 0.898999 0.398999
vt 0.898999 0.201001
vt 0.801001 0.201001
vt 0.801001 0.398999
vt 0.201001 0.898999
vt 0.398999 0.898999
vt 0.398999 0.801001
vt 0.201001 0.801001
vt 0.898999 0.598999
vt 0.898999 0.401001
vt 0.801001 0.401001
vt 0.801001 0.598999
vt 0.802002 0.898999
vt 0.998999 0.802002
vt 0.998999 0.898999
vt 0.801001 0.897998
vt 0.997998 0.801001
vt 0.801001 0.801001
vt 0.902002 0.598999
vt 0.998999 0.598999
vt 0.998999 0.402002
vt 0.997998 0.401001
vt 0.901001 0.597998
vt 0.901001 0.401001
vt 0.798999 0.902002
vt 0.798999 0.998999
vt 0.602002 0.998999
vt 0.601001 0.997998
vt 0.797998 0.901001
vt 0.601001 0.901001
vt 0.998999 0.798999
vt 0.998999 0.602002
vt 0.902002 0.798999
vt 0.901001 0.601001
vt 0.997998 0.601001
vt 0.901001 0.797998
vt 0.198999 0.801001
vt 0.001001 0.801001
vt 0.001001 0.998999
vt 0.198999 0.998999
vt 0.798999 0.601001
vt 0.601001 0.601001
vt 0.601001 0.798999
vt 0.798999 0.798999
vt 0.802002 0.998999
vt 0.898999 0.902002
vt 0.898999 0.998999
vt 0.897998 0.901001
vt 0.801001 0.901001
vt 0.801001 0.997998
vt 0.598999 0.902002
vt 0.402002 0.998999
vt 0.598999 0.998999
vt 0.798999 0.401001
vt 0.601001 0.401001
vt 0.601001 0.598999
vt 0.798999 0.598999
vt 0.401001 0.997998
vt 0.401001 0.901001
vt 0.597998 0.901001
vt 0.998999 0.001001
vt 0.801001 0.001001
vt 0.801001 0.198999
vt 0.998999 0.198999
vn 0.0000 -1.0000 0.0000
vn 0.0000 0.6570 0.7539
vn 0.0000 0.0000 -1.0000
vn 0.0000 -0.0300 0.9995
vn 0.0000 0.0000 1.0000
vn -1.0000 0.0000 0.0000
vn 1.0000 0.0000 0.0000
vn 0.0000 0.5884 -0.8086
vn 0.0000 0.0963 -0.9954
vn 0.0000 -0.3090 -0.9511
vn 0.0000 -0.9255 -0.3787
vn 0.0000 0.9255 -0.3787
vn 0.0000 0.3090 -0.9511
vn 0.0000 -0.0963 -0.9954
vn 0.0000 -0.5884 -0.8086
s off
f 1/1/1 3/2/1 4/3/1 2/4/1
f 5/5/2 6/6/2 8/7/2 7/8/2
f 7/9/3 8/10/3 13/11/3 11/12/3
f 21/13/4 22/14/4 6/15/4 5/16/4
f 1/17/5 2/18/5 22/19/5 21/20/5
f 4/21/3 3/22/3 12/23/3 23/24/3
f 3/25/6 1/26/6 21/27/6 12/28/6
f 2/29/7 4/30/7 23/31/7 22/32/7
f 20/33/8 28/34/8 27/35/8 19/36/8
f 18/37/9 26/38/9 25/39/9 17/40/9
f 16/41/10 24/42/10 9/43/10 15/44/10
f 14/45/11 10/46/11 11/47/11 13/48/11
f 23/49/12 12/50/12 28/51/12 20/52/12
f 19/53/13 27/54/13 26/55/13 18/56/13
f 17/57/14 25/58/14 24/59/14 16/60/14
f 15/61/15 9/62/15 10/63/15 14/64/15
f 22/65/7 23/66/7 20/67/7
f 12/68/6 21/69/6 28/70/6
f 20/71/7 19/72/7 22/73/7
f 28/74/6 21/75/6 27/76/6
f 26/77/6 27/78/6 21/79/6
f 18/80/7 22/81/7 19/82/7
f 13/83/7 8/84/7 14/85/7
f 11/86/6 10/87/6 7/88/6
f 8/89/7 6/90/7 15/91/7 14/92/7
f 7/93/6 10/94/6 9/95/6 5/96/6
f 15/97/7 6/98/7 16/99/7
f 9/100/6 24/101/6 5/102/6
f 17/103/7 22/104/7 18/105/7
f 17/106/7 16/107/7 6/108/7 22/109/7
f 25/110/6 26/111/6 21/112/6
f 5/113/6 24/114/6 25/115/6 21/116/6
