# Blender v2.79 (sub 0) OBJ File: 'Skyscrapers.blend'
# www.blender.org
g Building_2_Plane.001
v -0.994114 0.000000 0.994114
v 0.994114 0.000000 0.994114
v -0.994114 0.000000 -0.994114
v 0.994114 0.000000 -0.994114
v -0.994114 3.287691 0.994114
v -0.497057 8.489821 -0.994114
v -0.994114 3.287691 -0.994114
v 0.994114 3.287691 -0.994114
v -0.994114 0.000000 0.000000
v 0.994114 0.000000 0.000000
v -0.994114 3.287691 0.000000
v 0.994114 3.287691 0.000000
v -0.497057 8.489821 0.000000
v -0.994114 8.489821 -0.994114
v 0.000000 0.000000 0.994114
v 0.000000 0.000000 -0.994114
v 0.000000 3.287691 0.994114
v 0.000000 3.287691 -0.994114
v 0.000000 3.287691 0.000000
v 0.000000 0.000000 0.000000
v -0.497057 8.489821 -0.497057
v 0.000000 6.981431 0.000000
v 0.994114 6.981431 0.497057
v 0.497057 2.916433 0.497057
v 0.497057 2.916433 0.994114
v 0.000000 6.981431 0.497057
v -0.994114 0.000000 0.497057
v -0.994114 3.287691 0.497057
v 0.994114 0.000000 0.497057
v 0.994114 3.287691 0.497057
v 0.000000 0.000000 0.497057
v 0.000000 3.287691 0.497057
v 0.497057 0.000000 0.994114
v 0.497057 3.287691 0.994114
v 0.497057 0.000000 0.000000
v 0.497057 0.000000 -0.994114
v 0.497057 3.287691 -0.994114
v 0.497057 3.287691 0.000000
v 0.497057 0.000000 0.497057
v 0.497057 3.287691 0.497057
v -0.497057 0.000000 -0.994114
v -0.497057 3.287691 -0.994114
v -0.497057 3.287691 0.000000
v -0.497057 6.981431 -0.994114
v -0.497057 0.000000 0.994114
v -0.497057 3.287691 0.994114
v -0.497057 0.000000 0.000000
v -0.497057 3.287691 0.497057
v -0.497057 0.000000 0.497057
v 0.994114 0.000000 -0.497057
v 0.994114 3.287691 -0.497057
v -0.994114 0.000000 -0.497057
v -0.994114 3.287691 -0.497057
v -0.994114 7.356743 -0.497057
v 0.000000 3.287691 -0.497057
v 0.000000 0.000000 -0.497057
v 0.497057 3.287691 -0.497057
v 0.497057 0.000000 -0.497057
v -0.497057 0.000000 -0.497057
v 0.994114 6.981431 0.000000
v 0.497057 3.605323 -0.497057
v -0.994114 6.981431 0.497057
v 0.994114 2.916433 0.497057
v 0.497057 6.981431 -0.994114
v 0.000000 3.605323 -0.497057
v 0.497057 3.605323 -0.994114
v -0.497057 6.981431 0.000000
v 0.994114 2.916433 0.994114
v 0.000000 5.333179 -0.497057
v 0.000000 3.605323 -0.994114
v 0.000000 5.333179 -0.994114
v -0.994114 5.015674 0.000000
v -0.994114 5.015674 0.497057
v -0.497057 5.015674 0.000000
v -0.497057 5.015674 0.497057
v -0.497057 5.939044 0.497057
v -0.994114 5.939044 0.497057
v -0.994114 5.939044 0.000000
v -0.497057 5.939044 0.000000
v -0.497057 3.287691 -0.497057
v 0.000000 4.485412 0.000000
v -0.497057 4.485412 0.000000
v 0.000000 4.485412 -0.497057
v -0.497057 4.485412 -0.497057
v 0.000000 5.662395 0.000000
v -0.497057 5.662395 0.000000
v 0.000000 5.662395 -0.497057
v -0.497057 5.662395 -0.497057
v 0.497057 5.333179 -0.497057
v 0.497057 5.333179 -0.994114
v -0.497057 3.930581 0.497057
v -0.497057 6.981431 -0.497057
v -0.994114 6.981431 -0.994114
v -0.994114 6.981431 0.000000
v -0.994114 6.981431 -0.497057
v -0.497057 3.930581 0.994114
v 0.497057 6.981431 0.497057
v 0.000000 3.930581 0.497057
v 0.000000 3.930581 0.994114
v -0.497057 6.981431 0.497057
v 0.497057 6.276288 0.000000
v 0.497057 6.981431 -0.497057
v 0.000000 6.981431 -0.994114
v 0.000000 6.981431 -0.497057
v 0.497057 6.276288 0.497057
v 0.994114 6.276288 0.000000
v 0.994114 6.276288 0.497057
v 0.994114 4.216696 0.000000
v 0.994114 4.216696 0.497057
v 0.497057 4.216696 0.000000
v 0.497057 4.216696 0.497057
v -0.994114 8.489821 0.000000
v -0.994114 8.489821 -0.497057
v -0.497057 7.822593 -0.994114
v -0.497057 7.822593 -0.497057
v 0.000000 7.822593 -0.994114
v 0.000000 7.822593 -0.497057
v -0.994114 7.822593 0.497057
v -0.497057 7.822593 0.000000
v -0.994114 7.822593 0.000000
v -0.497057 7.822593 0.497057
v 0.000000 7.356743 0.000000
v -0.994114 7.822593 -0.497057
v 0.000000 7.356743 -0.497057
v 0.000000 6.589810 0.497057
v 0.000000 6.589810 0.000000
v 0.497057 6.589810 0.497057
v 0.497057 6.589810 0.000000
v 0.000000 7.581733 0.000000
v 0.000000 7.356743 0.497057
v -0.994114 7.356743 -0.994114
v -0.497057 7.356743 -0.994114
v 0.497057 7.356743 -0.994114
v -0.497057 7.356743 0.000000
v 0.497057 6.981431 0.000000
v 0.497057 7.356743 0.497057
v 0.497057 7.356743 0.000000
v -0.497057 7.356743 0.497057
v 0.497057 7.356743 -0.497057
v 0.000000 7.356743 -0.994114
v -0.497057 7.581733 -0.497057
v 0.000000 7.581733 -0.497057
v -0.497057 7.581733 0.000000
v -0.994114 7.356743 0.000000
v -0.994114 7.356743 0.497057
v -0.994114 7.822593 -0.994114
vt 0.943443 0.889890
vt 0.889890 0.889890
vt 0.889890 0.943443
vt 0.943443 0.943443
vt 0.443443 0.054555
vt 0.443443 0.001001
vt 0.223223 0.001001
vt 0.223223 0.054555
vt 0.221221 0.167668
vt 0.167668 0.167668
vt 0.167668 0.387888
vt 0.221221 0.387888
vt 0.332332 0.165666
vt 0.332332 0.112112
vt 0.112112 0.112112
vt 0.112112 0.165666
vt 0.165666 0.167668
vt 0.112112 0.167668
vt 0.112112 0.387888
vt 0.165666 0.387888
vt 0.001001 0.110110
vt 0.221221 0.110110
vt 0.221221 0.001001
vt 0.001001 0.001001
vt 0.998999 0.001001
vt 0.945445 0.001001
vt 0.945445 0.110110
vt 0.998999 0.110110
vt 0.554555 0.278779
vt 0.501001 0.278779
vt 0.501001 0.332332
vt 0.554555 0.332332
vt 0.223223 0.110110
vt 0.443443 0.110110
vt 0.443443 0.056557
vt 0.223223 0.056557
vt 0.387888 0.112112
vt 0.334334 0.112112
vt 0.334334 0.332332
vt 0.387888 0.332332
vt 0.498999 0.278779
vt 0.445445 0.278779
vt 0.445445 0.332332
vt 0.498999 0.332332
vt 0.332332 0.443443
vt 0.332332 0.389890
vt 0.112112 0.389890
vt 0.112112 0.443443
vt 0.554555 0.223223
vt 0.501001 0.223223
vt 0.501001 0.276777
vt 0.554555 0.276777
vt 0.498999 0.223223
vt 0.445445 0.223223
vt 0.445445 0.276777
vt 0.498999 0.276777
vt 0.443443 0.112112
vt 0.389890 0.112112
vt 0.389890 0.332332
vt 0.443443 0.332332
vt 0.443443 0.387888
vt 0.443443 0.334334
vt 0.223223 0.334334
vt 0.223223 0.387888
vt 0.665666 0.612112
vt 0.612112 0.612112
vt 0.612112 0.665666
vt 0.665666 0.665666
vt 0.943443 0.778779
vt 0.889890 0.778779
vt 0.889890 0.887888
vt 0.943443 0.887888
vt 0.610110 0.612112
vt 0.556557 0.612112
vt 0.556557 0.665666
vt 0.610110 0.665666
vt 0.665666 0.556557
vt 0.612112 0.556557
vt 0.612112 0.610110
vt 0.665666 0.610110
vt 0.221221 0.498999
vt 0.221221 0.445445
vt 0.001001 0.445445
vt 0.001001 0.498999
vt 0.498999 0.001001
vt 0.445445 0.001001
vt 0.445445 0.221221
vt 0.498999 0.221221
vt 0.610110 0.556557
vt 0.556557 0.556557
vt 0.556557 0.610110
vt 0.610110 0.610110
vt 0.332332 0.223223
vt 0.278779 0.223223
vt 0.278779 0.276777
vt 0.332332 0.276777
vt 0.443443 0.498999
vt 0.443443 0.445445
vt 0.223223 0.445445
vt 0.223223 0.498999
vt 0.276777 0.223223
vt 0.223223 0.223223
vt 0.223223 0.276777
vt 0.276777 0.276777
vt 0.332332 0.167668
vt 0.278779 0.167668
vt 0.278779 0.221221
vt 0.332332 0.221221
vt 0.276777 0.167668
vt 0.223223 0.167668
vt 0.223223 0.221221
vt 0.276777 0.221221
vt 0.110110 0.332332
vt 0.110110 0.112112
vt 0.001001 0.112112
vt 0.001001 0.332332
vt 0.110110 0.389890
vt 0.056557 0.389890
vt 0.056557 0.443443
vt 0.110110 0.443443
vt 0.054555 0.389890
vt 0.001001 0.389890
vt 0.001001 0.443443
vt 0.054555 0.443443
vt 0.110110 0.334334
vt 0.056557 0.334334
vt 0.056557 0.387888
vt 0.110110 0.387888
vt 0.054555 0.334334
vt 0.001001 0.334334
vt 0.001001 0.387888
vt 0.054555 0.387888
vt 0.221221 0.554555
vt 0.221221 0.501001
vt 0.001001 0.501001
vt 0.001001 0.554555
vt 0.554555 0.001001
vt 0.501001 0.001001
vt 0.501001 0.221221
vt 0.554555 0.221221
vt 0.665666 0.056557
vt 0.612112 0.056557
vt 0.612112 0.110110
vt 0.665666 0.110110
vt 0.610110 0.056557
vt 0.556557 0.056557
vt 0.556557 0.110110
vt 0.610110 0.110110
vt 0.443443 0.554555
vt 0.443443 0.501001
vt 0.223223 0.501001
vt 0.223223 0.554555
vt 0.665666 0.001001
vt 0.612112 0.001001
vt 0.612112 0.054555
vt 0.665666 0.054555
vt 0.610110 0.001001
vt 0.556557 0.001001
vt 0.556557 0.054555
vt 0.610110 0.054555
vt 0.665666 0.167668
vt 0.612112 0.167668
vt 0.612112 0.221221
vt 0.665666 0.221221
vt 0.610110 0.167668
vt 0.556557 0.167668
vt 0.556557 0.221221
vt 0.610110 0.221221
vt 0.665666 0.112112
vt 0.612112 0.112112
vt 0.612112 0.165666
vt 0.665666 0.165666
vt 0.498999 0.334334
vt 0.445445 0.334334
vt 0.445445 0.554555
vt 0.498999 0.554555
vt 0.221221 0.610110
vt 0.221221 0.556557
vt 0.001001 0.556557
vt 0.001001 0.610110
vt 0.610110 0.112112
vt 0.556557 0.112112
vt 0.556557 0.165666
vt 0.610110 0.165666
vt 0.665666 0.278779
vt 0.612112 0.278779
vt 0.612112 0.332332
vt 0.665666 0.332332
vt 0.554555 0.554555
vt 0.554555 0.334334
vt 0.501001 0.334334
vt 0.501001 0.554555
vt 0.221221 0.998999
vt 0.221221 0.945445
vt 0.112112 0.945445
vt 0.112112 0.998999
vt 0.943443 0.667668
vt 0.889890 0.667668
vt 0.889890 0.776777
vt 0.943443 0.776777
vt 0.110110 0.998999
vt 0.110110 0.945445
vt 0.001001 0.945445
vt 0.001001 0.998999
vt 0.610110 0.278779
vt 0.556557 0.278779
vt 0.556557 0.332332
vt 0.610110 0.332332
vt 0.610110 0.334334
vt 0.556557 0.334334
vt 0.556557 0.554555
vt 0.610110 0.554555
vt 0.443443 0.610110
vt 0.443443 0.556557
vt 0.223223 0.556557
vt 0.223223 0.610110
vt 0.665666 0.334334
vt 0.612112 0.334334
vt 0.612112 0.554555
vt 0.665666 0.554555
vt 0.665666 0.223223
vt 0.612112 0.223223
vt 0.612112 0.276777
vt 0.665666 0.276777
vt 0.221221 0.665666
vt 0.221221 0.612112
vt 0.001001 0.612112
vt 0.001001 0.665666
vt 0.943443 0.665666
vt 0.943443 0.556557
vt 0.889890 0.556557
vt 0.889890 0.665666
vt 0.610110 0.223223
vt 0.556557 0.223223
vt 0.556557 0.276777
vt 0.610110 0.276777
vt 0.443443 0.665666
vt 0.443443 0.612112
vt 0.223223 0.612112
vt 0.223223 0.665666
vt 0.721221 0.001001
vt 0.667668 0.001001
vt 0.667668 0.221221
vt 0.721221 0.221221
vt 0.221221 0.721221
vt 0.221221 0.667668
vt 0.001001 0.667668
vt 0.001001 0.721221
vt 0.721221 0.223223
vt 0.667668 0.223223
vt 0.667668 0.443443
vt 0.721221 0.443443
vt 0.223223 0.721221
vt 0.443443 0.721221
vt 0.443443 0.667668
vt 0.223223 0.667668
vt 0.554555 0.612112
vt 0.501001 0.612112
vt 0.501001 0.665666
vt 0.554555 0.665666
vt 0.721221 0.445445
vt 0.667668 0.445445
vt 0.667668 0.665666
vt 0.721221 0.665666
vt 0.665666 0.721221
vt 0.665666 0.667668
vt 0.445445 0.667668
vt 0.445445 0.721221
vt 0.776777 0.001001
vt 0.723223 0.001001
vt 0.723223 0.221221
vt 0.776777 0.221221
vt 0.221221 0.776777
vt 0.221221 0.723223
vt 0.001001 0.723223
vt 0.001001 0.776777
vt 0.498999 0.612112
vt 0.445445 0.612112
vt 0.445445 0.665666
vt 0.498999 0.665666
vt 0.554555 0.556557
vt 0.501001 0.556557
vt 0.501001 0.610110
vt 0.554555 0.610110
vt 0.498999 0.556557
vt 0.445445 0.556557
vt 0.445445 0.610110
vt 0.498999 0.610110
vt 0.776777 0.723223
vt 0.723223 0.723223
vt 0.723223 0.776777
vt 0.776777 0.776777
vt 0.721221 0.723223
vt 0.667668 0.723223
vt 0.667668 0.776777
vt 0.721221 0.776777
vt 0.998999 0.112112
vt 0.945445 0.112112
vt 0.945445 0.221221
vt 0.998999 0.221221
vt 0.887888 0.943443
vt 0.887888 0.889890
vt 0.778779 0.889890
vt 0.778779 0.943443
vt 0.943443 0.445445
vt 0.889890 0.445445
vt 0.889890 0.554555
vt 0.943443 0.554555
vt 0.776777 0.667668
vt 0.723223 0.667668
vt 0.723223 0.721221
vt 0.776777 0.721221
vt 0.667668 0.943443
vt 0.776777 0.943443
vt 0.776777 0.889890
vt 0.667668 0.889890
vt 0.668669 0.832332
vt 0.721221 0.779780
vt 0.721221 0.832332
vt 0.721221 0.667668
vt 0.667668 0.667668
vt 0.667668 0.721221
vt 0.721221 0.721221
vt 0.832332 0.278779
vt 0.778779 0.278779
vt 0.778779 0.332332
vt 0.832332 0.332332
vt 0.776777 0.278779
vt 0.723223 0.278779
vt 0.723223 0.332332
vt 0.776777 0.332332
vt 0.832332 0.223223
vt 0.778779 0.223223
vt 0.778779 0.276777
vt 0.832332 0.276777
vt 0.667668 0.778779
vt 0.667668 0.831331
vt 0.720220 0.778779
vt 0.943443 0.334334
vt 0.889890 0.334334
vt 0.889890 0.443443
vt 0.943443 0.443443
vt 0.776777 0.223223
vt 0.723223 0.223223
vt 0.723223 0.276777
vt 0.776777 0.276777
vt 0.332332 0.778779
vt 0.278779 0.778779
vt 0.278779 0.832332
vt 0.332332 0.832332
vt 0.276777 0.778779
vt 0.223223 0.778779
vt 0.223223 0.832332
vt 0.276777 0.832332
vt 0.332332 0.723223
vt 0.278779 0.723223
vt 0.278779 0.776777
vt 0.332332 0.776777
vt 0.276777 0.723223
vt 0.223223 0.723223
vt 0.223223 0.776777
vt 0.276777 0.776777
vt 0.832332 0.389890
vt 0.778779 0.389890
vt 0.778779 0.443443
vt 0.832332 0.443443
vt 0.556557 0.943443
vt 0.665666 0.943443
vt 0.665666 0.889890
vt 0.556557 0.889890
vt 0.943443 0.332332
vt 0.943443 0.223223
vt 0.889890 0.223223
vt 0.889890 0.332332
vt 0.776777 0.389890
vt 0.723223 0.389890
vt 0.723223 0.443443
vt 0.776777 0.443443
vt 0.832332 0.334334
vt 0.778779 0.334334
vt 0.778779 0.387888
vt 0.832332 0.387888
vt 0.445445 0.943443
vt 0.554555 0.943443
vt 0.554555 0.889890
vt 0.445445 0.889890
vt 0.943443 0.112112
vt 0.889890 0.112112
vt 0.889890 0.221221
vt 0.943443 0.221221
vt 0.334334 0.443443
vt 0.443443 0.443443
vt 0.443443 0.389890
vt 0.334334 0.389890
vt 0.943443 0.110110
vt 0.943443 0.001001
vt 0.889890 0.001001
vt 0.889890 0.110110
vt 0.776777 0.334334
vt 0.723223 0.334334
vt 0.723223 0.387888
vt 0.776777 0.387888
vt 0.443443 0.778779
vt 0.389890 0.778779
vt 0.389890 0.832332
vt 0.443443 0.832332
vt 0.387888 0.778779
vt 0.334334 0.778779
vt 0.334334 0.832332
vt 0.387888 0.832332
vt 0.443443 0.723223
vt 0.389890 0.723223
vt 0.389890 0.776777
vt 0.443443 0.776777
vt 0.387888 0.723223
vt 0.334334 0.723223
vt 0.334334 0.776777
vt 0.387888 0.776777
vt 0.554555 0.778779
vt 0.501001 0.778779
vt 0.501001 0.832332
vt 0.554555 0.832332
vt 0.498999 0.778779
vt 0.445445 0.778779
vt 0.445445 0.832332
vt 0.498999 0.832332
vt 0.776777 0.832332
vt 0.776777 0.779780
vt 0.724224 0.832332
vt 0.110110 0.778779
vt 0.001001 0.778779
vt 0.001001 0.887888
vt 0.110110 0.887888
vt 0.332332 0.332332
vt 0.332332 0.278779
vt 0.223223 0.278779
vt 0.223223 0.332332
vt 0.221221 0.778779
vt 0.112112 0.778779
vt 0.112112 0.887888
vt 0.221221 0.887888
vt 0.723223 0.778779
vt 0.775776 0.778779
vt 0.723223 0.831331
vt 0.554555 0.723223
vt 0.501001 0.723223
vt 0.501001 0.776777
vt 0.554555 0.776777
vt 0.498999 0.723223
vt 0.445445 0.723223
vt 0.445445 0.776777
vt 0.498999 0.776777
vt 0.832332 0.501001
vt 0.778779 0.501001
vt 0.778779 0.554555
vt 0.832332 0.554555
vt 0.776777 0.501001
vt 0.723223 0.501001
vt 0.723223 0.554555
vt 0.776777 0.554555
vt 0.832332 0.445445
vt 0.778779 0.445445
vt 0.778779 0.498999
vt 0.832332 0.498999
vt 0.776777 0.445445
vt 0.723223 0.445445
vt 0.723223 0.498999
vt 0.776777 0.498999
vt 0.665666 0.778779
vt 0.612112 0.778779
vt 0.612112 0.832332
vt 0.665666 0.832332
vt 0.610110 0.778779
vt 0.556557 0.778779
vt 0.556557 0.832332
vt 0.610110 0.832332
vt 0.665666 0.723223
vt 0.612112 0.723223
vt 0.612112 0.776777
vt 0.665666 0.776777
vt 0.610110 0.723223
vt 0.556557 0.723223
vt 0.556557 0.776777
vt 0.610110 0.776777
vt 0.832332 0.612112
vt 0.778779 0.612112
vt 0.778779 0.665666
vt 0.832332 0.665666
vt 0.776777 0.612112
vt 0.723223 0.612112
vt 0.723223 0.665666
vt 0.776777 0.665666
vt 0.832332 0.556557
vt 0.778779 0.556557
vt 0.778779 0.610110
vt 0.832332 0.610110
vt 0.776777 0.556557
vt 0.723223 0.556557
vt 0.723223 0.610110
vt 0.776777 0.610110
vt 0.887888 0.056557
vt 0.834334 0.056557
vt 0.834334 0.110110
vt 0.887888 0.110110
vt 0.832332 0.056557
vt 0.778779 0.056557
vt 0.778779 0.110110
vt 0.832332 0.110110
vt 0.887888 0.001001
vt 0.834334 0.001001
vt 0.834334 0.054555
vt 0.887888 0.054555
vt 0.887888 0.443443
vt 0.887888 0.223223
vt 0.834334 0.223223
vt 0.834334 0.443443
vt 0.443443 0.887888
vt 0.443443 0.834334
vt 0.223223 0.834334
vt 0.223223 0.887888
vt 0.887888 0.445445
vt 0.834334 0.445445
vt 0.834334 0.665666
vt 0.887888 0.665666
vt 0.832332 0.001001
vt 0.778779 0.001001
vt 0.778779 0.054555
vt 0.832332 0.054555
vt 0.887888 0.167668
vt 0.834334 0.167668
vt 0.834334 0.221221
vt 0.887888 0.221221
vt 0.832332 0.167668
vt 0.778779 0.167668
vt 0.778779 0.221221
vt 0.832332 0.221221
vt 0.887888 0.112112
vt 0.834334 0.112112
vt 0.834334 0.165666
vt 0.887888 0.165666
vt 0.832332 0.112112
vt 0.778779 0.112112
vt 0.778779 0.165666
vt 0.832332 0.165666
vt 0.445445 0.887888
vt 0.665666 0.887888
vt 0.665666 0.834334
vt 0.445445 0.834334
vt 0.832332 0.887888
vt 0.832332 0.667668
vt 0.778779 0.667668
vt 0.778779 0.887888
vt 0.001001 0.943443
vt 0.221221 0.943443
vt 0.221221 0.889890
vt 0.001001 0.889890
vt 0.887888 0.887888
vt 0.887888 0.667668
vt 0.834334 0.667668
vt 0.834334 0.887888
vt 0.223223 0.943443
vt 0.443443 0.943443
vt 0.443443 0.889890
vt 0.223223 0.889890
vt 0.776777 0.834334
vt 0.723223 0.834334
vt 0.723223 0.887888
vt 0.776777 0.887888
vt 0.721221 0.835335
vt 0.721221 0.887888
vt 0.668669 0.887888
vt 0.667668 0.834334
vt 0.667668 0.886887
vt 0.720220 0.834334
vn 0.0000 -1.0000 0.0000
vn 0.0000 0.0000 -1.0000
vn 1.0000 0.0000 0.0000
vn -1.0000 0.0000 0.0000
vn 0.0000 0.0000 1.0000
vn 0.0000 1.0000 0.0000
s off
f 58/1/1 36/2/1 4/3/1 50/4/1
f 41/5/2 3/6/2 7/7/2 42/8/2
f 50/9/3 4/10/3 8/11/3 51/12/3
f 27/13/4 1/14/4 5/15/4 28/16/4
f 52/17/4 9/18/4 11/19/4 53/20/4
f 63/21/3 29/22/3 10/23/3 12/24/3
f 40/25/5 30/26/5 109/27/5 111/28/5
f 39/29/1 35/30/1 10/31/1 29/32/1
f 2/33/5 68/34/5 25/35/5 33/36/5
f 42/37/2 7/38/2 93/39/2 44/40/2
f 57/41/3 37/42/3 66/43/3 61/44/3
f 53/45/4 11/46/4 94/47/4 95/48/4
f 49/49/1 47/50/1 20/51/1 31/52/1
f 48/53/6 32/54/6 19/55/6 43/56/6
f 45/57/5 15/58/5 17/59/5 46/60/5
f 36/61/2 16/62/2 18/63/2 37/64/2
f 59/65/1 41/66/1 16/67/1 56/68/1
f 46/69/5 17/70/5 99/71/5 96/72/5
f 45/73/1 49/74/1 31/75/1 15/76/1
f 33/77/1 39/78/1 29/79/1 2/80/1
f 63/81/3 68/82/3 2/83/3 29/84/3
f 9/85/4 27/86/4 28/87/4 11/88/4
f 17/89/6 34/90/6 40/91/6 32/92/6
f 15/93/1 31/94/1 39/95/1 33/96/1
f 4/97/2 36/98/2 37/99/2 8/100/2
f 51/101/6 8/102/6 37/103/6 57/104/6
f 31/105/1 20/106/1 35/107/1 39/108/1
f 32/109/6 40/110/6 38/111/6 19/112/6
f 17/113/5 15/114/5 33/115/5 25/116/5
f 56/117/1 16/118/1 36/119/1 58/120/1
f 1/121/1 27/122/1 49/123/1 45/124/1
f 5/125/6 46/126/6 48/127/6 28/128/6
f 52/129/1 3/130/1 41/131/1 59/132/1
f 1/133/5 45/134/5 46/135/5 5/136/5
f 48/137/3 43/138/3 74/139/3 75/140/3
f 27/141/1 9/142/1 47/143/1 49/144/1
f 40/145/3 34/146/3 25/147/3 24/148/3
f 16/149/2 41/150/2 42/151/2 18/152/2
f 9/153/1 52/154/1 59/155/1 47/156/1
f 20/157/1 56/158/1 58/159/1 35/160/1
f 12/161/6 51/162/6 57/163/6 38/164/6
f 47/165/1 59/166/1 56/167/1 20/168/1
f 38/169/6 57/170/6 55/171/6 19/172/6
f 3/173/4 52/174/4 53/175/4 7/176/4
f 10/177/3 50/178/3 51/179/3 12/180/3
f 35/181/1 58/182/1 50/183/1 10/184/1
f 30/185/5 40/186/5 24/187/5 63/188/5
f 103/189/2 18/190/2 42/191/2 44/192/2
f 48/193/4 46/194/4 96/195/4 91/196/4
f 17/197/3 32/198/3 98/199/3 99/200/3
f 32/201/2 48/202/2 91/203/2 98/204/2
f 96/205/6 99/206/6 98/207/6 91/208/6
f 28/209/5 48/210/5 75/211/5 73/212/5
f 43/213/2 11/214/2 72/215/2 74/216/2
f 11/217/4 28/218/4 73/219/4 72/220/4
f 72/221/6 73/222/6 75/223/6 74/224/6
f 55/225/2 80/226/2 84/227/2 83/228/2
f 74/229/5 79/230/5 78/231/5 72/232/5
f 82/233/6 81/234/6 83/235/6 84/236/6
f 43/237/5 19/238/5 81/239/5 82/240/5
f 19/241/3 55/242/3 83/243/3 81/244/3
f 80/245/4 43/246/4 82/247/4 84/248/4
f 80/249/5 55/250/5 104/251/5 92/252/5
f 53/253/4 95/254/4 93/255/4 7/256/4
f 25/257/6 68/258/6 63/259/6 24/260/6
f 55/261/3 18/262/3 103/263/3 104/264/3
f 42/265/4 80/266/4 92/267/4 44/268/4
f 80/269/2 53/270/2 95/271/2 92/272/2
f 43/273/3 80/274/3 92/275/3 67/276/3
f 61/277/6 66/278/6 70/279/6 65/280/6
f 18/281/4 55/282/4 65/283/4 70/284/4
f 55/285/5 57/286/5 61/287/5 65/288/5
f 37/289/2 18/290/2 70/291/2 66/292/2
f 111/293/6 109/294/6 108/295/6 110/296/6
f 12/297/2 38/298/2 110/299/2 108/300/2
f 30/301/3 12/302/3 108/303/3 109/304/3
f 38/305/4 40/306/4 111/307/4 110/308/4
f 115/309/3 119/310/3 143/311/3 141/312/3
f 138/313/3 143/314/3 119/315/3 121/316/3
f 143/317/3 138/318/3 134/319/3
f 134/320/5 122/321/5 129/322/5 143/323/5
f 124/324/3 142/325/3 129/326/3 122/327/3
f 115/328/5 141/329/5 142/330/5 117/331/5
f 141/332/6 143/333/6 129/334/6 142/335/6
f 124/336/3 140/337/3 142/338/3
f 117/339/3 142/340/3 140/341/3 116/342/3
f 114/343/6 115/344/6 117/345/6 116/346/6
f 114/347/2 116/348/2 140/349/2 132/350/2
f 118/351/4 120/352/4 144/353/4 145/354/4
f 132/355/2 131/356/2 146/357/2 114/358/2
f 131/359/4 54/360/4 123/361/4 146/362/4
f 54/363/4 144/364/4 120/365/4 123/366/4
f 120/367/4 112/368/4 113/369/4 123/370/4
f 14/371/4 146/372/4 123/373/4 113/374/4
f 113/375/6 112/376/6 13/377/6 21/378/6
f 21/379/6 6/380/6 14/381/6 113/382/6
f 6/383/2 114/384/2 146/385/2 14/386/2
f 115/387/3 114/388/3 6/389/3 21/390/3
f 13/391/3 119/392/3 115/393/3 21/394/3
f 112/395/5 120/396/5 119/397/5 13/398/5
f 118/399/6 121/400/6 119/401/6 120/402/6
f 138/403/5 121/404/5 118/405/5 145/406/5
f 138/407/6 130/408/6 122/409/6 134/410/6
f 136/411/6 137/412/6 122/413/6 130/414/6
f 124/415/6 122/416/6 137/417/6 139/418/6
f 139/419/6 133/420/6 140/421/6 124/422/6
f 128/423/2 126/424/2 22/425/2 135/426/2
f 135/427/2 60/428/2 128/429/2
f 60/430/2 106/431/2 101/432/2 128/433/2
f 60/434/3 23/435/3 107/436/3 106/437/3
f 107/438/5 23/439/5 127/440/5 105/441/5
f 97/442/5 127/443/5 23/444/5
f 97/445/5 26/446/5 125/447/5 127/448/5
f 106/449/1 107/450/1 105/451/1 101/452/1
f 127/453/1 125/454/1 126/455/1 128/456/1
f 128/457/4 101/458/4 105/459/4 127/460/4
f 136/461/5 130/462/5 26/463/5 97/464/5
f 60/465/6 135/466/6 97/467/6 23/468/6
f 97/469/3 135/470/3 137/471/3 136/472/3
f 102/473/3 139/474/3 137/475/3 135/476/3
f 26/477/5 130/478/5 138/479/5 100/480/5
f 62/481/5 100/482/5 138/483/5 145/484/5
f 62/485/4 145/486/4 144/487/4 94/488/4
f 94/489/4 144/490/4 54/491/4 95/492/4
f 95/493/4 54/494/4 131/495/4 93/496/4
f 131/497/2 132/498/2 44/499/2 93/500/2
f 44/501/2 132/502/2 140/503/2 103/504/2
f 64/505/2 103/506/2 140/507/2 133/508/2
f 102/509/3 64/510/3 133/511/3 139/512/3
f 77/513/4 62/514/4 94/515/4 78/516/4
f 77/517/5 76/518/5 100/519/5 62/520/5
f 76/521/3 79/522/3 67/523/3 100/524/3
f 77/525/1 78/526/1 79/527/1 76/528/1
f 22/529/1 26/530/1 100/531/1 67/532/1
f 125/533/4 26/534/4 22/535/4 126/536/4
f 85/537/1 86/538/1 88/539/1 87/540/1
f 71/541/1 90/542/1 89/543/1 69/544/1
f 102/545/3 89/546/3 90/547/3 64/548/3
f 64/549/2 90/550/2 71/551/2 103/552/2
f 87/553/3 104/554/3 22/555/3 85/556/3
f 67/557/5 86/558/5 85/559/5 22/560/5
f 89/561/5 102/562/5 104/563/5 69/564/5
f 102/565/1 135/566/1 22/567/1 104/568/1
f 12/569/3 30/570/3 63/571/3
f 34/572/5 17/573/5 25/574/5
l 104 124
l 88 92
l 67 94
l 67 134
